<?xml version="1.0" encoding="UTF-8" standalone="no"?>
<!-- Generator: Adobe Illustrator 19.0.0, SVG Export Plug-In . SVG Version: 6.00 Build 0)  -->

<svg
   xmlns:dc="http://purl.org/dc/elements/1.1/"
   xmlns:cc="http://creativecommons.org/ns#"
   xmlns:rdf="http://www.w3.org/1999/02/22-rdf-syntax-ns#"
   xmlns:svg="http://www.w3.org/2000/svg"
   xmlns="http://www.w3.org/2000/svg"
   xmlns:sodipodi="http://sodipodi.sourceforge.net/DTD/sodipodi-0.dtd"
   xmlns:inkscape="http://www.inkscape.org/namespaces/inkscape"
   version="1.1"
   id="Capa_1"
   x="0px"
   y="0px"
   viewBox="0 0 464 464"
   style="enable-background:new 0 0 464 464;"
   xml:space="preserve"
   sodipodi:docname="resume.svg"
   inkscape:version="0.92.2 2405546, 2018-03-11"><metadata
   id="metadata4078"><rdf:RDF><cc:Work
       rdf:about=""><dc:format>image/svg+xml</dc:format><dc:type
         rdf:resource="http://purl.org/dc/dcmitype/StillImage" /></cc:Work></rdf:RDF></metadata><defs
   id="defs4076" /><sodipodi:namedview
   pagecolor="#ffffff"
   bordercolor="#666666"
   borderopacity="1"
   objecttolerance="10"
   gridtolerance="10"
   guidetolerance="10"
   inkscape:pageopacity="0"
   inkscape:pageshadow="2"
   inkscape:window-width="1280"
   inkscape:window-height="720"
   id="namedview4074"
   showgrid="false"
   inkscape:zoom="1.0301724"
   inkscape:cx="232"
   inkscape:cy="241.11327"
   inkscape:window-x="0"
   inkscape:window-y="0"
   inkscape:window-maximized="0"
   inkscape:current-layer="Capa_1" />
<rect
   x="87.029289"
   y="43.849369"
   style="fill:#7b7b7b"
   width="128"
   height="160"
   id="rect4021" />
<g
   id="g4041"
   style="fill:#7b7b7b"
   transform="translate(-0.9707113,5.8242678)">
	<path
   style="fill:#7b7b7b"
   d="m 88,464 h 288 c 22.056,0 40,-17.944 40,-40 V 40 C 416,17.944 398.056,0 376,0 H 88 C 65.944,0 48,17.944 48,40 v 384 c 0,22.056 17.944,40 40,40 z M 64,40 C 64,26.768 74.768,16 88,16 h 288 c 13.232,0 24,10.768 24,24 v 384 c 0,13.232 -10.768,24 -24,24 H 88 C 74.768,448 64,437.232 64,424 Z"
   id="path4023"
   inkscape:connector-curvature="0" />
	<path
   style="fill:#7b7b7b"
   d="m 88,208 h 128 c 4.424,0 8,-3.576 8,-8 V 40 c 0,-4.424 -3.576,-8 -8,-8 H 88 c -4.424,0 -8,3.576 -8,8 v 160 c 0,4.424 3.576,8 8,8 z M 96,48 H 208 V 192 H 96 Z"
   id="path4025"
   inkscape:connector-curvature="0" />
	<path
   style="fill:#7b7b7b"
   d="m 248,80 h 96 c 4.424,0 8,-3.576 8,-8 0,-4.424 -3.576,-8 -8,-8 h -96 c -4.424,0 -8,3.576 -8,8 0,4.424 3.576,8 8,8 z"
   id="path4027"
   inkscape:connector-curvature="0" />
	<path
   style="fill:#7b7b7b"
   d="m 248,112 h 128 c 4.424,0 8,-3.576 8,-8 0,-4.424 -3.576,-8 -8,-8 H 248 c -4.424,0 -8,3.576 -8,8 0,4.424 3.576,8 8,8 z"
   id="path4029"
   inkscape:connector-curvature="0" />
	<path
   style="fill:#7b7b7b"
   d="m 376,416 h -96 c -4.424,0 -8,3.576 -8,8 0,4.424 3.576,8 8,8 h 96 c 4.424,0 8,-3.576 8,-8 0,-4.424 -3.576,-8 -8,-8 z"
   id="path4031"
   inkscape:connector-curvature="0" />
	<path
   style="fill:#7b7b7b"
   d="m 184,256 c -4.424,0 -8,3.576 -8,8 0,4.424 3.576,8 8,8 h 96 c 4.424,0 8,-3.576 8,-8 0,-4.424 -3.576,-8 -8,-8 z"
   id="path4033"
   inkscape:connector-curvature="0" />
	<path
   style="fill:#7b7b7b"
   d="m 88,304 h 288 c 4.424,0 8,-3.576 8,-8 0,-4.424 -3.576,-8 -8,-8 H 88 c -4.424,0 -8,3.576 -8,8 0,4.424 3.576,8 8,8 z"
   id="path4035"
   inkscape:connector-curvature="0" />
	<path
   style="fill:#7b7b7b"
   d="m 88,336 h 288 c 4.424,0 8,-3.576 8,-8 0,-4.424 -3.576,-8 -8,-8 H 88 c -4.424,0 -8,3.576 -8,8 0,4.424 3.576,8 8,8 z"
   id="path4037"
   inkscape:connector-curvature="0" />
	<path
   style="fill:#7b7b7b"
   d="m 88,368 h 288 c 4.424,0 8,-3.576 8,-8 0,-4.424 -3.576,-8 -8,-8 H 88 c -4.424,0 -8,3.576 -8,8 0,4.424 3.576,8 8,8 z"
   id="path4039"
   inkscape:connector-curvature="0" />
</g>
<g
   id="g4043"
   style="fill:#7b7b7b"
   transform="translate(-0.9707113,5.8242678)">
</g>
<g
   id="g4045"
   style="fill:#7b7b7b"
   transform="translate(-0.9707113,5.8242678)">
</g>
<g
   id="g4047"
   style="fill:#7b7b7b"
   transform="translate(-0.9707113,5.8242678)">
</g>
<g
   id="g4049"
   style="fill:#7b7b7b"
   transform="translate(-0.9707113,5.8242678)">
</g>
<g
   id="g4051"
   style="fill:#7b7b7b"
   transform="translate(-0.9707113,5.8242678)">
</g>
<g
   id="g4053"
   style="fill:#7b7b7b"
   transform="translate(-0.9707113,5.8242678)">
</g>
<g
   id="g4055"
   style="fill:#7b7b7b"
   transform="translate(-0.9707113,5.8242678)">
</g>
<g
   id="g4057"
   style="fill:#7b7b7b"
   transform="translate(-0.9707113,5.8242678)">
</g>
<g
   id="g4059"
   style="fill:#7b7b7b"
   transform="translate(-0.9707113,5.8242678)">
</g>
<g
   id="g4061"
   style="fill:#7b7b7b"
   transform="translate(-0.9707113,5.8242678)">
</g>
<g
   id="g4063"
   style="fill:#7b7b7b"
   transform="translate(-0.9707113,5.8242678)">
</g>
<g
   id="g4065"
   style="fill:#7b7b7b"
   transform="translate(-0.9707113,5.8242678)">
</g>
<g
   id="g4067"
   style="fill:#7b7b7b"
   transform="translate(-0.9707113,5.8242678)">
</g>
<g
   id="g4069"
   style="fill:#7b7b7b"
   transform="translate(-0.9707113,5.8242678)">
</g>
<g
   id="g4071"
   style="fill:#7b7b7b"
   transform="translate(-0.9707113,5.8242678)">
</g>
</svg>