<?xml version="1.0" encoding="UTF-8" standalone="no"?>
<!-- Generator: Adobe Illustrator 19.0.0, SVG Export Plug-In . SVG Version: 6.00 Build 0)  -->

<svg
   xmlns:dc="http://purl.org/dc/elements/1.1/"
   xmlns:cc="http://creativecommons.org/ns#"
   xmlns:rdf="http://www.w3.org/1999/02/22-rdf-syntax-ns#"
   xmlns:svg="http://www.w3.org/2000/svg"
   xmlns="http://www.w3.org/2000/svg"
   xmlns:sodipodi="http://sodipodi.sourceforge.net/DTD/sodipodi-0.dtd"
   xmlns:inkscape="http://www.inkscape.org/namespaces/inkscape"
   version="1.1"
   id="Capa_1"
   x="0px"
   y="0px"
   viewBox="0 0 512 512"
   style="enable-background:new 0 0 512 512;"
   xml:space="preserve"
   sodipodi:docname="ruler.svg"
   inkscape:version="0.92.2 2405546, 2018-03-11"><metadata
   id="metadata507"><rdf:RDF><cc:Work
       rdf:about=""><dc:format>image/svg+xml</dc:format><dc:type
         rdf:resource="http://purl.org/dc/dcmitype/StillImage" /></cc:Work></rdf:RDF></metadata><defs
   id="defs505" /><sodipodi:namedview
   pagecolor="#ffffff"
   bordercolor="#666666"
   borderopacity="1"
   objecttolerance="10"
   gridtolerance="10"
   guidetolerance="10"
   inkscape:pageopacity="0"
   inkscape:pageshadow="2"
   inkscape:window-width="1280"
   inkscape:window-height="720"
   id="namedview503"
   showgrid="false"
   inkscape:zoom="0.96484375"
   inkscape:cx="20.210526"
   inkscape:cy="256"
   inkscape:window-x="0"
   inkscape:window-y="0"
   inkscape:window-maximized="0"
   inkscape:current-layer="Capa_1" />
<g
   id="g470"
   style="fill:#7b7b7b;fill-opacity:1">
	<g
   id="g468"
   style="fill:#7b7b7b;fill-opacity:1">
		<path
   d="M501.912,397.155L114.39,9.633C101.555-3.2,80.669-3.2,67.834,9.633L9.627,67.842c-12.836,12.836-12.836,33.721,0,46.557    l44.078,44.078c2.97,2.97,7.785,2.97,10.754,0c2.97-2.97,2.97-7.785,0-10.754l-44.078-44.078c-6.906-6.906-6.906-18.143,0-25.047    L78.59,20.389c6.907-6.908,18.143-6.908,25.048,0l1.309,1.309l-42.352,42.35c-2.97,2.971-2.97,7.785,0,10.754    c1.484,1.484,3.431,2.227,5.377,2.227c1.946,0,3.892-0.742,5.377-2.227l42.351-42.352l14.194,14.194l-18.981,18.981    c-3.031,3.031-3.199,8.159-0.095,11.115c1.467,1.397,3.355,2.096,5.243,2.096c1.946,0,3.892-0.742,5.377-2.227l19.211-19.21    l14.194,14.195l-19.21,19.21c-2.97,2.971-2.97,7.785,0,10.754c1.484,1.484,3.431,2.227,5.377,2.227    c1.946,0,3.892-0.742,5.377-2.227l19.211-19.21l14.194,14.194l-19.21,19.211c-2.97,2.97-2.97,7.785,0,10.753    c1.484,1.484,3.431,2.227,5.377,2.227c1.946,0,3.892-0.742,5.377-2.228l19.21-19.21l14.195,14.195l-42.351,42.351    c-2.97,2.971-2.97,7.785,0,10.754c1.484,1.484,3.431,2.227,5.377,2.227s3.892-0.742,5.377-2.227l42.352-42.351l14.194,14.195    l-18.981,18.981c-3.031,3.031-3.199,8.159-0.094,11.115c1.467,1.397,3.355,2.096,5.243,2.096c1.946,0,3.892-0.742,5.377-2.227    l19.21-19.211l14.194,14.194l-18.981,18.981c-3.031,3.031-3.199,8.159-0.095,11.115c1.467,1.397,3.355,2.096,5.243,2.096    c1.946,0,3.892-0.742,5.377-2.227l19.21-19.21l14.195,14.194l-19.21,19.21c-2.97,2.971-2.97,7.785,0,10.754    c1.485,1.484,3.432,2.227,5.378,2.227c1.946,0,3.892-0.742,5.378-2.227l19.21-19.21l14.194,14.195l-42.351,42.351    c-2.97,2.971-2.97,7.785,0,10.754c1.485,1.484,3.432,2.227,5.378,2.227s3.892-0.742,5.378-2.227l42.351-42.351l14.194,14.194    l-19.21,19.21c-2.97,2.971-2.97,7.785,0,10.754c1.485,1.484,3.432,2.227,5.378,2.227s3.892-0.742,5.378-2.227l19.21-19.21    l14.193,14.194l-19.21,19.21c-2.97,2.971-2.97,7.785,0,10.754c1.485,1.484,3.432,2.227,5.378,2.227s3.892-0.742,5.378-2.227    l19.21-19.21l14.194,14.195l-19.21,19.21c-2.97,2.971-2.97,7.785,0,10.754c1.485,1.484,3.432,2.227,5.378,2.227    s3.892-0.742,5.378-2.227l19.21-19.21l14.195,14.194l-42.351,42.351c-2.97,2.971-2.97,7.785,0,10.754    c1.485,1.484,3.432,2.227,5.378,2.227c1.946,0,3.892-0.742,5.378-2.227l42.351-42.351l14.195,14.194l-19.21,19.21    c-2.97,2.971-2.97,7.785,0,10.754c1.485,1.484,3.432,2.227,5.378,2.227c1.946,0,3.892-0.742,5.378-2.227l19.21-19.21    l14.194,14.194l-19.21,19.21c-2.97,2.971-2.97,7.785,0,10.754c1.485,1.484,3.432,2.227,5.378,2.227s3.892-0.742,5.378-2.227    l19.21-19.21l14.194,14.194l-19.21,19.21c-2.97,2.971-2.97,7.785,0,10.754c1.485,1.484,3.432,2.227,5.378,2.227    s3.892-0.742,5.378-2.227l19.21-19.21l1.386,1.386c3.14,3.14,5.175,7.282,5.44,11.714c0.307,5.135-1.553,10.016-5.156,13.618    l-58.209,58.208c-6.906,6.908-18.142,6.908-25.046,0L89.552,172.815c-2.97-2.97-7.785-2.97-10.754,0    c-2.97,2.97-2.97,7.785,0,10.754l318.796,318.796c6.418,6.417,14.848,9.626,23.278,9.626c8.429,0,16.86-3.209,23.278-9.626    l58.209-58.208c6.349-6.35,9.786-14.838,9.637-23.839C511.851,411.596,508.08,403.324,501.912,397.155z"
   id="path466"
   style="fill:#7b7b7b;fill-opacity:1" />
	</g>
</g>
<g
   id="g472"
   style="fill:#7b7b7b;fill-opacity:1">
</g>
<g
   id="g474"
   style="fill:#7b7b7b;fill-opacity:1">
</g>
<g
   id="g476"
   style="fill:#7b7b7b;fill-opacity:1">
</g>
<g
   id="g478"
   style="fill:#7b7b7b;fill-opacity:1">
</g>
<g
   id="g480"
   style="fill:#7b7b7b;fill-opacity:1">
</g>
<g
   id="g482"
   style="fill:#7b7b7b;fill-opacity:1">
</g>
<g
   id="g484"
   style="fill:#7b7b7b;fill-opacity:1">
</g>
<g
   id="g486"
   style="fill:#7b7b7b;fill-opacity:1">
</g>
<g
   id="g488"
   style="fill:#7b7b7b;fill-opacity:1">
</g>
<g
   id="g490"
   style="fill:#7b7b7b;fill-opacity:1">
</g>
<g
   id="g492"
   style="fill:#7b7b7b;fill-opacity:1">
</g>
<g
   id="g494"
   style="fill:#7b7b7b;fill-opacity:1">
</g>
<g
   id="g496"
   style="fill:#7b7b7b;fill-opacity:1">
</g>
<g
   id="g498"
   style="fill:#7b7b7b;fill-opacity:1">
</g>
<g
   id="g500"
   style="fill:#7b7b7b;fill-opacity:1">
</g>
</svg>