<?xml version="1.0" encoding="UTF-8" standalone="no"?>
<!-- Generator: Adobe Illustrator 16.0.0, SVG Export Plug-In . SVG Version: 6.00 Build 0)  -->

<svg
   xmlns:dc="http://purl.org/dc/elements/1.1/"
   xmlns:cc="http://creativecommons.org/ns#"
   xmlns:rdf="http://www.w3.org/1999/02/22-rdf-syntax-ns#"
   xmlns:svg="http://www.w3.org/2000/svg"
   xmlns="http://www.w3.org/2000/svg"
   xmlns:sodipodi="http://sodipodi.sourceforge.net/DTD/sodipodi-0.dtd"
   xmlns:inkscape="http://www.inkscape.org/namespaces/inkscape"
   version="1.1"
   id="Capa_1"
   x="0px"
   y="0px"
   width="512px"
   height="512px"
   viewBox="0 0 470.586 470.586"
   style="enable-background:new 0 0 470.586 470.586;"
   xml:space="preserve"
   sodipodi:docname="text-document-active.svg"
   inkscape:version="0.92.2 2405546, 2018-03-11"><metadata
   id="metadata2036"><rdf:RDF><cc:Work
       rdf:about=""><dc:format>image/svg+xml</dc:format><dc:type
         rdf:resource="http://purl.org/dc/dcmitype/StillImage" /><dc:title></dc:title></cc:Work></rdf:RDF></metadata><defs
   id="defs2034" /><sodipodi:namedview
   pagecolor="#ffffff"
   bordercolor="#666666"
   borderopacity="1"
   objecttolerance="10"
   gridtolerance="10"
   guidetolerance="10"
   inkscape:pageopacity="0"
   inkscape:pageshadow="2"
   inkscape:window-width="1280"
   inkscape:window-height="720"
   id="namedview2032"
   showgrid="false"
   inkscape:zoom="0.93359375"
   inkscape:cx="12.317992"
   inkscape:cy="256"
   inkscape:window-x="0"
   inkscape:window-y="0"
   inkscape:window-maximized="0"
   inkscape:current-layer="Capa_1" />
<g
   id="g1999"
   style="fill:#00988e;fill-opacity:1">
	<path
   d="M327.081,0H90.234C74.331,0,61.381,12.959,61.381,28.859v412.863c0,15.924,12.95,28.863,28.853,28.863H380.35   c15.917,0,28.855-12.939,28.855-28.863V89.234L327.081,0z M333.891,43.184l35.996,39.121h-35.996V43.184z M384.972,441.723   c0,2.542-2.081,4.629-4.635,4.629H90.234c-2.55,0-4.619-2.087-4.619-4.629V28.859c0-2.548,2.069-4.613,4.619-4.613h219.411v70.181   c0,6.682,5.443,12.099,12.129,12.099h63.198V441.723z M128.364,128.89H334.15c5.013,0,9.079,4.066,9.079,9.079   c0,5.013-4.066,9.079-9.079,9.079H128.364c-5.012,0-9.079-4.066-9.079-9.079C119.285,132.957,123.352,128.89,128.364,128.89z    M343.229,198.98c0,5.012-4.066,9.079-9.079,9.079H128.364c-5.012,0-9.079-4.066-9.079-9.079s4.067-9.079,9.079-9.079H334.15   C339.163,189.901,343.229,193.968,343.229,198.98z M343.229,257.993c0,5.013-4.066,9.079-9.079,9.079H128.364   c-5.012,0-9.079-4.066-9.079-9.079s4.067-9.079,9.079-9.079H334.15C339.163,248.914,343.229,252.98,343.229,257.993z    M343.229,318.011c0,5.013-4.066,9.079-9.079,9.079H128.364c-5.012,0-9.079-4.066-9.079-9.079s4.067-9.079,9.079-9.079H334.15   C339.163,308.932,343.229,312.998,343.229,318.011z"
   fill="#FFFFFF"
   id="path1997"
   style="fill:#00988e;fill-opacity:1" />
</g>
<g
   id="g2001"
   style="fill:#00988e;fill-opacity:1">
</g>
<g
   id="g2003"
   style="fill:#00988e;fill-opacity:1">
</g>
<g
   id="g2005"
   style="fill:#00988e;fill-opacity:1">
</g>
<g
   id="g2007"
   style="fill:#00988e;fill-opacity:1">
</g>
<g
   id="g2009"
   style="fill:#00988e;fill-opacity:1">
</g>
<g
   id="g2011"
   style="fill:#00988e;fill-opacity:1">
</g>
<g
   id="g2013"
   style="fill:#00988e;fill-opacity:1">
</g>
<g
   id="g2015"
   style="fill:#00988e;fill-opacity:1">
</g>
<g
   id="g2017"
   style="fill:#00988e;fill-opacity:1">
</g>
<g
   id="g2019"
   style="fill:#00988e;fill-opacity:1">
</g>
<g
   id="g2021"
   style="fill:#00988e;fill-opacity:1">
</g>
<g
   id="g2023"
   style="fill:#00988e;fill-opacity:1">
</g>
<g
   id="g2025"
   style="fill:#00988e;fill-opacity:1">
</g>
<g
   id="g2027"
   style="fill:#00988e;fill-opacity:1">
</g>
<g
   id="g2029"
   style="fill:#00988e;fill-opacity:1">
</g>
</svg>